<svg width="34" height="31" viewBox="0 0 34 31" fill="none" xmlns="http://www.w3.org/2000/svg">
<path d="M32.0897 20.7816L29 22.3264L25 14.6662L28.1212 13.1056C28.3557 12.9883 28.6268 12.9679 28.8763 13.0486C29.1257 13.1293 29.3335 13.3047 29.4548 13.5371L32.5289 19.4243C32.5904 19.542 32.6278 19.6708 32.639 19.8031C32.6501 19.9354 32.6348 20.0687 32.5939 20.195C32.553 20.3214 32.4874 20.4383 32.4008 20.539C32.3142 20.6397 32.2085 20.7222 32.0897 20.7816V20.7816Z" stroke="white" stroke-linecap="round" stroke-linejoin="round"/>
<path d="M29 22.3264L27 24.6661L22.4004 29.2657C22.2783 29.3879 22.1266 29.4763 21.9602 29.5224C21.7938 29.5684 21.6182 29.5707 21.4507 29.5288L14.2061 27.7176C14.0702 27.6837 13.943 27.6215 13.8326 27.5352L7 22.1924" stroke="white" stroke-linecap="round" stroke-linejoin="round"/>
<path d="M7 22L21.5001 20.6663L19.8206 20.8207C19.0342 20.8931 18.1979 21.0367 17.3324 21.0367C16.4669 21.0367 16.1776 21.1394 15 21.244L14.4061 21.3188C14.2915 21.2328 14.213 21.1625 14.1445 21.0367C14.0759 20.9109 14.0351 20.7719 14.025 20.629C14.0148 20.486 14.0355 20.3426 14.0856 20.2084C14.1357 20.0742 14.214 19.9523 14.3154 19.851L19.2072 14.9592C19.3 14.8663 19.4103 14.7926 19.5316 14.7424C19.6529 14.6921 19.7829 14.6663 19.9143 14.6663H25.0001" stroke="white" stroke-linecap="round" stroke-linejoin="round"/>
<circle cx="8" cy="12" r="8" fill="#C19D74"/>
<circle cx="8" cy="2" r="2" fill="#C19D74"/>
<rect x="5" y="3" width="6" height="1.5" rx="0.75" fill="white"/>
<path d="M8.62635 13.7342C8.74506 13.6821 8.84347 13.5927 8.90657 13.4794C8.97076 13.3506 9.00225 13.208 8.99827 13.0642L8.62635 13.7342ZM8.62635 13.7342C8.47537 13.7993 8.31173 13.8297 8.14744 13.8233L8.62635 13.7342ZM9.49952 13.045C9.50025 13.0769 9.49961 13.1086 9.49763 13.1402C9.49855 13.1158 9.49882 13.0913 9.49844 13.0667C9.50427 12.8354 9.44466 12.6087 9.32858 12.4118C9.36117 12.4601 9.38979 12.5112 9.41407 12.5645C9.47472 12.7084 9.50389 12.8637 9.49958 13.0198L9.49924 13.0324L9.49952 13.045Z" fill="white" stroke="white"/>
<circle cx="22" cy="6" r="4.5" stroke="white"/>
<path d="M22 6L24.2186 7.63117" stroke="white" stroke-linecap="round"/>
<path d="M22 6L22 3.24631" stroke="white" stroke-linecap="round"/>
</svg>
